0
SECTION
2
HEADER
9
$INSUNITS
70
4
9
$ACADVER
1
AC1014
9
$HANDSEED
5
FFFF
0
ENDSEC
0
SECTION
2
TABLES
0
TABLE
2
VPORT
5
8
100
AcDbSymbolTable
0
ENDTAB
0
TABLE
2
LTYPE
5
5
100
AcDbSymbolTable
0
LTYPE
5
14
100
AcDbSymbolTableRecord
100
AcDbLinetypeTableRecord
2
BYBLOCK
70
0
0
LTYPE
5
15
100
AcDbSymbolTableRecord
100
AcDbLinetypeTableRecord
2
BYLAYER
70
0
0
ENDTAB
0
TABLE
2
LAYER
5
2
100
AcDbSymbolTable
70
2
0
LAYER
5
50
100
AcDbSymbolTableRecord
100
AcDbLayerTableRecord
2
0
70
0
6
CONTINUOUS
0
ENDTAB
0
TABLE
2
STYLE
5
3
100
AcDbSymbolTable
70
1
0
STYLE
5
11
100
AcDbSymbolTableRecord
100
AcDbTextStyleTableRecord
2
STANDARD
70
0
0
ENDTAB
0
TABLE
2
VIEW
5
6
100
AcDbSymbolTable
70
0
0
ENDTAB
0
TABLE
2
UCS
5
7
100
AcDbSymbolTable
70
0
0
ENDTAB
0
TABLE
2
APPID
5
9
100
AcDbSymbolTable
70
2
0
APPID
5
12
100
AcDbSymbolTableRecord
100
AcDbRegAppTableRecord
2
ACAD
70
0
0
ENDTAB
0
TABLE
2
DIMSTYLE
5
A
100
AcDbSymbolTable
70
1
0
ENDTAB
0
TABLE
2
BLOCK_RECORD
5
1
100
AcDbSymbolTable
70
1
0
BLOCK_RECORD
5
1F
100
AcDbSymbolTableRecord
100
AcDbBlockTableRecord
2
*MODEL_SPACE
0
BLOCK_RECORD
5
1B
100
AcDbSymbolTableRecord
100
AcDbBlockTableRecord
2
*PAPER_SPACE
0
ENDTAB
0
ENDSEC
0
SECTION
2
BLOCKS
0
BLOCK
5
20
100
AcDbEntity
100
AcDbBlockBegin
2
*MODEL_SPACE
0
ENDBLK
5
21
100
AcDbEntity
100
AcDbBlockEnd
0
BLOCK
5
1C
100
AcDbEntity
100
AcDbBlockBegin
2
*PAPER_SPACE
0
ENDBLK
5
1D
100
AcDbEntity
100
AcDbBlockEnd
0
ENDSEC
0
SECTION
2
ENTITIES
0
CIRCLE
5
100
100
AcDbEntity
8
0
100
AcDbCircle
10
46.532218493197057
20
128.47286564847448
30
0
40
1.749999999999998
210
0
220
-0
230
1
0
LWPOLYLINE
5
101
100
AcDbEntity
8
0
100
AcDbPolyline
90
44
70
1
43
0.0
10
-121.036734799965
20
148.07553193578991
10
-44.237781506803501
20
131.75141048393891
10
-44.237781506803493
20
131.74286564847449
42
0.41421356237308982
10
-42.737781506803429
20
130.24286564847444
10
-25.677781506803541
20
130.24286564847452
42
0.41421356237309681
10
-24.177781506803555
20
131.74286564847449
10
-24.177781506803413
20
132.38286564847456
10
12.012218493196515
20
132.38286564847459
42
0.41421356237309592
10
13.512218493196499
20
133.88286564847454
10
13.512218493196499
20
151.43286564847455
10
16.172218493196624
20
151.43286564847455
42
0.41421356237309115
10
17.67221849319661
20
152.93286564847455
10
17.672218493196468
20
170.4828656484745
10
20.24221849319645
20
170.4828656484745
42
0.41421356237309076
10
21.742218493196503
20
171.98286564847461
10
21.742218493196503
20
189.53286564847446
10
24.412218493196463
20
189.53286564847446
42
0.41421356237311935
10
25.912218493196519
20
191.03286564847457
10
25.912218493196505
20
227.14286564847455
42
0.41421356237310802
10
24.412218493196463
20
228.64286564847461
10
-2.1877815068035038
20
228.64286564847461
42
0.41421356237310747
10
-3.6877815068035602
20
227.14286564847455
10
-3.6877815068035602
20
209.5928656484746
10
-29.996015699188376
20
209.5928656484746
10
-26.427491769275122
20
226.38145077553932
42
0.41421356237308893
10
-27.582845634149109
20
228.16053971286667
10
-53.582008861653634
20
233.68683245480287
42
0.41421356237308282
10
-55.36109779898112
20
232.53147858992872
10
-55.361776783509384
20
232.5282842188723
10
-114.77602628216091
20
245.15717280651015
42
0.41421356237305701
10
-116.55511521948823
20
244.00181894163603
10
-120.10208866483907
20
227.31462087311706
42
0.41421356237309848
10
-118.94673479996497
20
225.53553193578978
10
-111.31285800088976
20
223.91290133116584
10
-114.96208866483913
20
206.74462087311738
42
0.4142135623730665
10
-113.80673479996504
20
204.96553193579001
10
-105.96380099497551
20
203.29846489279601
10
-109.61208866483901
20
186.13462087311731
42
0.41421356237307466
10
-108.45673479996492
20
184.35553193579
10
-105.2641288223171
20
183.67692258641404
10
-109.01542208133593
20
166.02847537055055
10
-116.86602628216093
20
167.69717280651005
42
0.41421356237312967
10
-118.64511521948822
20
166.541818941636
10
-122.1920886648391
20
149.85462087311731
42
0.41421356237310525
0
CIRCLE
5
102
100
AcDbEntity
8
0
100
AcDbCircle
10
-68.467781506802936
20
239.88725267280665
30
0
40
1.7500000000000071
210
0
220
-0
230
1
0
CIRCLE
5
103
100
AcDbEntity
8
0
100
AcDbCircle
10
-296.30653150680257
20
128.47286564847445
30
0
40
1.7500000000000071
210
0
220
-0
230
1
0
CIRCLE
5
104
100
AcDbEntity
8
0
100
AcDbCircle
10
-181.3065315068026
20
239.78124008767321
30
0
40
1.7500000000000071
210
0
220
-0
230
1
0
CIRCLE
5
105
100
AcDbEntity
8
0
100
AcDbCircle
10
-296.30653150680257
20
230.41286564847439
30
0
40
1.7500000000000071
210
0
220
-0
230
1
0
CIRCLE
5
106
100
AcDbEntity
8
0
100
AcDbCircle
10
-68.455215602881481
20
126.77286564847446
30
0
40
1.749999999999998
210
0
220
-0
230
1
0
LWPOLYLINE
5
107
100
AcDbEntity
8
0
100
AcDbPolyline
90
44
70
1
43
0.0
10
-290.35778150680363
20
189.53286564847446
10
-290.35778150680363
20
171.98286564847461
42
0.41421356237306034
10
-288.85778150680352
20
170.4828656484745
10
-286.0977815068037
20
170.4828656484745
10
-286.09778150680364
20
152.93286564847455
42
0.41421356237307771
10
-284.59778150680359
20
151.43286564847446
10
-281.9277815068034
20
151.43286564847446
10
-281.92778150680357
20
133.88286564847454
42
0.41421356237309853
10
-280.42778150680363
20
132.38286564847465
10
-225.19778150680338
20
132.38286564847456
10
-225.19778150680338
20
131.74286564847455
42
0.41421356237309503
10
-223.69778150680361
20
130.24286564847478
10
-205.16780997378945
20
130.24286564847449
42
0.010008486346708149
10
-205.10777709856143
20
130.24406744528244
10
-202.51968448159317
20
130.34773092767927
42
0.042377065210207884
10
-202.26784982059479
20
130.37930772977063
10
-128.32882821364208
20
146.09553193579006
42
0.41421356237309093
10
-127.17347434876798
20
147.87462087311727
10
-130.82379570184682
20
165.04803262008409
10
-122.97882821364183
20
166.71553193578998
42
0.41421356237303181
10
-121.82347434876795
20
168.49462087311733
10
-125.37044779411903
20
185.18181894163604
42
0.41421356237307394
10
-127.14953673144619
20
186.33717280651013
10
-130.34227906085658
20
185.65853447467225
10
-134.0917185449386
20
203.29826036515212
10
-126.239217012661
20
204.96736109136157
42
0.41421356237311002
10
-125.08386314778696
20
206.74645002868908
10
-132.59305883677641
20
242.07443816507464
42
0.41421356237309165
10
-134.37214777410387
20
243.22979202994858
10
-184.68529907257889
20
232.53540158316099
42
0.41343065285069669
10
-186.46354890737896
20
233.68683356957143
10
-212.4627173794579
20
228.16053971286667
42
0.41421356237308826
10
-213.61807124433204
20
226.38145077553929
10
-210.0495473144187
20
209.5928656484746
10
-261.26338150680351
20
209.5928656484746
10
-261.26338150680351
20
227.19086564847458
42
0.41421356237310197
10
-262.76338150680374
20
228.69086564847481
10
-289.36338150680353
20
228.69086564847461
42
0.41421356237310197
10
-290.86338150680353
20
227.19086564847458
10
-290.86338150680371
20
209.5928656484746
10
-293.03653150680361
20
209.5928656484746
42
0.41421356237310897
10
-294.53653150680373
20
208.09286564847454
10
-294.53653150680339
20
191.03286564847457
42
0.41421356237309503
10
-293.03653150680361
20
189.5328656484748
0
LWPOLYLINE
5
108
100
AcDbEntity
8
0
100
AcDbPolyline
90
20
70
1
43
0.0
10
20.632218493196604
20
167.85286564847465
42
-0.41421356237309592
10
22.132218493196522
20
169.35286564847456
10
24.702218493196568
20
169.35286564847456
10
24.702218493196568
20
186.90286564847455
42
-0.41421356237310897
10
26.202218493196554
20
188.40286564847446
10
43.262218493196507
20
188.40286564847446
42
-0.41421356237308982
10
44.762218493196485
20
186.90286564847455
10
44.762218493196492
20
169.84286564847454
42
-0.41421356237308815
10
43.262218493196507
20
168.3428656484746
10
40.692218493196613
20
168.34286564847457
10
40.69221849319662
20
150.79286564847456
42
-0.41421356237309076
10
39.192218493196478
20
149.29286564847445
10
36.532218493196496
20
149.2928656484745
10
36.532218493196488
20
131.74286564847449
42
-0.41421356237309681
10
35.03221849319651
20
130.24286564847452
10
17.972218493196408
20
130.24286564847458
42
-0.41421356237309681
10
16.4722184931965
20
131.74286564847446
10
16.472218493196436
20
148.80286564847455
42
-0.41421356237310636
10
17.972218493196408
20
150.30286564847447
10
20.632218493196607
20
150.30286564847447
0
CIRCLE
5
109
100
AcDbEntity
8
0
100
AcDbCircle
10
-181.3065315068026
20
127.27286564847446
30
0
40
1.7500000000000071
210
0
220
-0
230
1
0
CIRCLE
5
110
100
AcDbEntity
8
0
100
AcDbCircle
10
46.532218493197057
20
230.41286564847439
30
0
40
1.7499999999999893
210
0
220
-0
230
1
0
LWPOLYLINE
5
111
100
AcDbEntity
8
0
100
AcDbPolyline
90
12
70
1
43
0.0
10
57.232218493197102
20
122.77286564847449
42
-0.41421356237308876
10
52.232218493197138
20
117.77286564847445
10
-302.0065315068025
20
117.77286564847451
42
-0.41421356237309609
10
-307.0065315068025
20
122.77286564847445
10
-307.00653150680273
20
236.11286564847438
42
-0.41421356237309087
10
-302.00653150680267
20
241.11286564847438
10
-220.73420207397632
20
241.11286564847438
10
-132.9542491395118
20
259.7710706277802
42
-0.10510423526567246
10
-116.32131387409144
20
259.77107062778009
10
-28.541360939627083
20
241.11286564847438
10
52.232218493197138
20
241.11286564847447
42
-0.41421356237309087
10
57.232218493197138
20
236.11286564847438
0
ENDSEC
0
SECTION
2
OBJECTS
0
DICTIONARY
5
C
100
AcDbDictionary
3
ACAD_GROUP
350
D
3
ACAD_MLINESTYLE
350
17
0
DICTIONARY
5
D
100
AcDbDictionary
0
DICTIONARY
5
1A
330
C
100
AcDbDictionary
0
DICTIONARY
5
17
100
AcDbDictionary
0
ENDSEC
0
EOF
