0
SECTION
2
HEADER
9
$INSUNITS
70
4
9
$ACADVER
1
AC1014
9
$HANDSEED
5
FFFF
0
ENDSEC
0
SECTION
2
TABLES
0
TABLE
2
VPORT
5
8
100
AcDbSymbolTable
0
ENDTAB
0
TABLE
2
LTYPE
5
5
100
AcDbSymbolTable
0
LTYPE
5
14
100
AcDbSymbolTableRecord
100
AcDbLinetypeTableRecord
2
BYBLOCK
70
0
0
LTYPE
5
15
100
AcDbSymbolTableRecord
100
AcDbLinetypeTableRecord
2
BYLAYER
70
0
0
ENDTAB
0
TABLE
2
LAYER
5
2
100
AcDbSymbolTable
70
2
0
LAYER
5
50
100
AcDbSymbolTableRecord
100
AcDbLayerTableRecord
2
0
70
0
6
CONTINUOUS
0
ENDTAB
0
TABLE
2
STYLE
5
3
100
AcDbSymbolTable
70
1
0
STYLE
5
11
100
AcDbSymbolTableRecord
100
AcDbTextStyleTableRecord
2
STANDARD
70
0
0
ENDTAB
0
TABLE
2
VIEW
5
6
100
AcDbSymbolTable
70
0
0
ENDTAB
0
TABLE
2
UCS
5
7
100
AcDbSymbolTable
70
0
0
ENDTAB
0
TABLE
2
APPID
5
9
100
AcDbSymbolTable
70
2
0
APPID
5
12
100
AcDbSymbolTableRecord
100
AcDbRegAppTableRecord
2
ACAD
70
0
0
ENDTAB
0
TABLE
2
DIMSTYLE
5
A
100
AcDbSymbolTable
70
1
0
ENDTAB
0
TABLE
2
BLOCK_RECORD
5
1
100
AcDbSymbolTable
70
1
0
BLOCK_RECORD
5
1F
100
AcDbSymbolTableRecord
100
AcDbBlockTableRecord
2
*MODEL_SPACE
0
BLOCK_RECORD
5
1B
100
AcDbSymbolTableRecord
100
AcDbBlockTableRecord
2
*PAPER_SPACE
0
ENDTAB
0
ENDSEC
0
SECTION
2
BLOCKS
0
BLOCK
5
20
100
AcDbEntity
100
AcDbBlockBegin
2
*MODEL_SPACE
0
ENDBLK
5
21
100
AcDbEntity
100
AcDbBlockEnd
0
BLOCK
5
1C
100
AcDbEntity
100
AcDbBlockBegin
2
*PAPER_SPACE
0
ENDBLK
5
1D
100
AcDbEntity
100
AcDbBlockEnd
0
ENDSEC
0
SECTION
2
ENTITIES
0
LWPOLYLINE
5
100
100
AcDbEntity
8
0
100
AcDbPolyline
90
6
70
1
43
0.0
10
-183.21355373492534
20
241.89920284028378
10
-184.09425216889395
20
239.1886917688426
10
-182.18722994077123
20
237.07072901623204
10
-179.39950927867986
20
237.66327733506262
10
-178.51881084471125
20
240.37378840650379
10
-180.42583307283397
20
242.49175115911439
0
LWPOLYLINE
5
101
100
AcDbEntity
8
0
100
AcDbPolyline
90
6
70
1
43
0.0
10
45.107218493197053
20
232.88103804926004
10
43.682218493197063
20
230.41286564847439
10
45.107218493197067
20
227.94469324768875
10
47.957218493197054
20
227.94469324768875
10
49.382218493197044
20
230.41286564847439
10
47.957218493197047
20
232.88103804926004
0
LWPOLYLINE
5
102
100
AcDbEntity
8
0
100
AcDbPolyline
90
6
70
1
43
0.0
10
-69.880215602881492
20
129.24103804926008
10
-71.305215602881475
20
126.77286564847444
10
-69.880215602881464
20
124.3046932476888
10
-67.030215602881469
20
124.30469324768882
10
-65.605215602881486
20
126.77286564847448
10
-67.030215602881498
20
129.24103804926011
0
LWPOLYLINE
5
103
100
AcDbEntity
8
0
100
AcDbPolyline
90
6
70
1
43
0.0
10
-299.15653150680259
20
230.41286564847442
10
-297.73153150680264
20
227.94469324768875
10
-294.88153150680262
20
227.94469324768872
10
-293.45653150680261
20
230.41286564847437
10
-294.88153150680256
20
232.88103804926004
10
-297.73153150680258
20
232.88103804926007
0
LWPOLYLINE
5
104
100
AcDbEntity
8
0
100
AcDbPolyline
90
6
70
1
43
0.0
10
-297.73153150680264
20
130.9410380492601
10
-299.15653150680259
20
128.47286564847442
10
-297.73153150680253
20
126.00469324768879
10
-294.88153150680256
20
126.00469324768882
10
-293.45653150680261
20
128.47286564847448
10
-294.88153150680267
20
130.94103804926013
0
LWPOLYLINE
5
105
100
AcDbEntity
8
0
100
AcDbPolyline
90
6
70
1
43
0.0
10
43.682218493197055
20
128.47286564847451
10
45.107218493197038
20
126.00469324768883
10
47.95721849319704
20
126.00469324768882
10
49.382218493197058
20
128.47286564847448
10
47.957218493197075
20
130.94103804926016
10
45.107218493197074
20
130.94103804926016
0
LWPOLYLINE
5
106
100
AcDbEntity
8
0
100
AcDbPolyline
90
6
70
1
43
0.0
10
-182.73153150680258
20
129.74103804926011
10
-184.15653150680259
20
127.27286564847446
10
-182.73153150680261
20
124.80469324768882
10
-179.88153150680262
20
124.80469324768882
10
-178.45653150680261
20
127.27286564847446
10
-179.88153150680259
20
129.74103804926011
0
LWPOLYLINE
5
107
100
AcDbEntity
8
0
100
AcDbPolyline
90
6
70
1
43
0.0
10
-67.587083072834332
20
237.17674160136545
10
-65.680060844711591
20
239.29470435397604
10
-66.560759278680194
20
242.00521542541722
10
-69.34847994077154
20
242.5977637442478
10
-71.255502168894282
20
240.47980099163723
10
-70.374803734925678
20
237.76928992019606
0
LWPOLYLINE
5
108
100
AcDbEntity
8
0
100
AcDbPolyline
90
27
70
1
43
0.0
10
-130.63778050680281
20
130.77286564847486
10
-130.63778050680281
20
117.77286564847483
10
-302.00653150680188
20
117.77286564847512
42
-0.41421356237309087
10
-307.00653150680176
20
122.77286564847512
10
-307.00653150680176
20
236.11286564847484
42
-0.4142135623730846
10
-302.00653150680171
20
241.11286564847461
10
-220.73420207397561
20
241.11286564847438
10
-132.95424913951138
20
259.7710706277802
42
-0.10510423526567436
10
-116.32131387409106
20
259.7710706277802
10
-28.54136093962687
20
241.11286564847438
10
52.232218493197138
20
241.1128656484741
42
-0.41421356237309503
10
57.232218493197138
20
236.1128656484741
10
57.232218493196996
20
122.77286564847465
42
-0.41421356237308776
10
52.232218493197124
20
117.77286564847465
10
-118.63778050680283
20
117.77286564847486
10
-118.63778050680281
20
130.77286564847486
10
42.732218493196889
20
130.77286564847466
42
0.41421356237309331
10
44.232218493196946
20
132.27286564847472
10
44.232218493197088
20
226.61286564847438
42
0.41421356237310025
10
42.732218493196889
20
228.11286564847455
10
-29.907715998080704
20
228.11286564847444
10
-124.63778150680128
20
248.24836265978377
10
-219.36784701552205
20
228.11286564847472
10
-292.50653150680216
20
228.11286564847484
42
0.41421356237310897
10
-294.00653150680216
20
226.61286564847478
10
-294.00653150680205
20
132.27286564847509
42
0.41421356237310542
10
-292.50653150680216
20
130.7728656484752
0
ENDSEC
0
SECTION
2
OBJECTS
0
DICTIONARY
5
C
100
AcDbDictionary
3
ACAD_GROUP
350
D
3
ACAD_MLINESTYLE
350
17
0
DICTIONARY
5
D
100
AcDbDictionary
0
DICTIONARY
5
1A
330
C
100
AcDbDictionary
0
DICTIONARY
5
17
100
AcDbDictionary
0
ENDSEC
0
EOF
