0
SECTION
2
HEADER
9
$INSUNITS
70
4
9
$ACADVER
1
AC1014
9
$HANDSEED
5
FFFF
0
ENDSEC
0
SECTION
2
TABLES
0
TABLE
2
VPORT
5
8
100
AcDbSymbolTable
0
ENDTAB
0
TABLE
2
LTYPE
5
5
100
AcDbSymbolTable
0
LTYPE
5
14
100
AcDbSymbolTableRecord
100
AcDbLinetypeTableRecord
2
BYBLOCK
70
0
0
LTYPE
5
15
100
AcDbSymbolTableRecord
100
AcDbLinetypeTableRecord
2
BYLAYER
70
0
0
ENDTAB
0
TABLE
2
LAYER
5
2
100
AcDbSymbolTable
70
2
0
LAYER
5
50
100
AcDbSymbolTableRecord
100
AcDbLayerTableRecord
2
0
70
0
6
CONTINUOUS
0
ENDTAB
0
TABLE
2
STYLE
5
3
100
AcDbSymbolTable
70
1
0
STYLE
5
11
100
AcDbSymbolTableRecord
100
AcDbTextStyleTableRecord
2
STANDARD
70
0
0
ENDTAB
0
TABLE
2
VIEW
5
6
100
AcDbSymbolTable
70
0
0
ENDTAB
0
TABLE
2
UCS
5
7
100
AcDbSymbolTable
70
0
0
ENDTAB
0
TABLE
2
APPID
5
9
100
AcDbSymbolTable
70
2
0
APPID
5
12
100
AcDbSymbolTableRecord
100
AcDbRegAppTableRecord
2
ACAD
70
0
0
ENDTAB
0
TABLE
2
DIMSTYLE
5
A
100
AcDbSymbolTable
70
1
0
ENDTAB
0
TABLE
2
BLOCK_RECORD
5
1
100
AcDbSymbolTable
70
1
0
BLOCK_RECORD
5
1F
100
AcDbSymbolTableRecord
100
AcDbBlockTableRecord
2
*MODEL_SPACE
0
BLOCK_RECORD
5
1B
100
AcDbSymbolTableRecord
100
AcDbBlockTableRecord
2
*PAPER_SPACE
0
ENDTAB
0
ENDSEC
0
SECTION
2
BLOCKS
0
BLOCK
5
20
100
AcDbEntity
100
AcDbBlockBegin
2
*MODEL_SPACE
0
ENDBLK
5
21
100
AcDbEntity
100
AcDbBlockEnd
0
BLOCK
5
1C
100
AcDbEntity
100
AcDbBlockBegin
2
*PAPER_SPACE
0
ENDBLK
5
1D
100
AcDbEntity
100
AcDbBlockEnd
0
ENDSEC
0
SECTION
2
ENTITIES
0
LWPOLYLINE
5
100
100
AcDbEntity
8
0
100
AcDbPolyline
90
6
70
1
43
0.0
10
-183.21355373492534
20
241.89920284028378
10
-184.09425216889395
20
239.1886917688426
10
-182.18722994077123
20
237.07072901623204
10
-179.39950927867986
20
237.66327733506262
10
-178.51881084471125
20
240.37378840650379
10
-180.42583307283397
20
242.49175115911439
0
LWPOLYLINE
5
101
100
AcDbEntity
8
0
100
AcDbPolyline
90
6
70
1
43
0.0
10
45.107218493197053
20
232.88103804926004
10
43.682218493197063
20
230.41286564847439
10
45.107218493197067
20
227.94469324768875
10
47.957218493197054
20
227.94469324768875
10
49.382218493197044
20
230.41286564847439
10
47.957218493197047
20
232.88103804926004
0
LWPOLYLINE
5
102
100
AcDbEntity
8
0
100
AcDbPolyline
90
6
70
1
43
0.0
10
-69.880215602881492
20
129.24103804926008
10
-71.305215602881475
20
126.77286564847444
10
-69.880215602881464
20
124.3046932476888
10
-67.030215602881469
20
124.30469324768882
10
-65.605215602881486
20
126.77286564847448
10
-67.030215602881498
20
129.24103804926011
0
LWPOLYLINE
5
103
100
AcDbEntity
8
0
100
AcDbPolyline
90
6
70
1
43
0.0
10
-299.15653150680259
20
230.41286564847442
10
-297.73153150680264
20
227.94469324768875
10
-294.88153150680262
20
227.94469324768872
10
-293.45653150680261
20
230.41286564847437
10
-294.88153150680256
20
232.88103804926004
10
-297.73153150680258
20
232.88103804926007
0
LWPOLYLINE
5
104
100
AcDbEntity
8
0
100
AcDbPolyline
90
6
70
1
43
0.0
10
-297.73153150680264
20
130.9410380492601
10
-299.15653150680259
20
128.47286564847442
10
-297.73153150680253
20
126.00469324768879
10
-294.88153150680256
20
126.00469324768882
10
-293.45653150680261
20
128.47286564847448
10
-294.88153150680267
20
130.94103804926013
0
LWPOLYLINE
5
105
100
AcDbEntity
8
0
100
AcDbPolyline
90
6
70
1
43
0.0
10
43.682218493197055
20
128.47286564847451
10
45.107218493197038
20
126.00469324768883
10
47.95721849319704
20
126.00469324768882
10
49.382218493197058
20
128.47286564847448
10
47.957218493197075
20
130.94103804926016
10
45.107218493197074
20
130.94103804926016
0
LWPOLYLINE
5
106
100
AcDbEntity
8
0
100
AcDbPolyline
90
6
70
1
43
0.0
10
-182.73153150680258
20
129.74103804926011
10
-184.15653150680259
20
127.27286564847446
10
-182.73153150680261
20
124.80469324768882
10
-179.88153150680262
20
124.80469324768882
10
-178.45653150680261
20
127.27286564847446
10
-179.88153150680259
20
129.74103804926011
0
LWPOLYLINE
5
107
100
AcDbEntity
8
0
100
AcDbPolyline
90
6
70
1
43
0.0
10
-67.587083072834332
20
237.17674160136545
10
-65.680060844711591
20
239.29470435397604
10
-66.560759278680194
20
242.00521542541722
10
-69.34847994077154
20
242.5977637442478
10
-71.255502168894282
20
240.47980099163723
10
-70.374803734925678
20
237.76928992019606
0
LWPOLYLINE
5
108
100
AcDbEntity
8
0
100
AcDbPolyline
90
18
70
1
43
0.0
10
-118.63778050680283
20
117.77286564847458
10
-118.63778050680281
20
133.00862849390123
42
0.41421356237309503
10
-119.63778050680283
20
134.00862849390123
10
-129.63778050680281
20
134.0086284939012
42
0.41421356237309503
10
-130.63778050680284
20
133.0086284939012
10
-130.63778050680284
20
117.77286564847458
10
-302.00653150680239
20
117.77286564847444
42
-0.41421356237309503
10
-307.0065315068025
20
122.77286564847458
10
-307.00653150680239
20
236.11286564847447
42
-0.41421356237309503
10
-302.00653150680239
20
241.11286564847447
10
-220.73420207397618
20
241.11286564847447
10
-132.95424913951163
20
259.77107062778015
42
-0.10510423526567313
10
-116.32131387409146
20
259.77107062778009
10
-28.541360939626941
20
241.11286564847447
10
52.232218493197422
20
241.11286564847447
42
-0.41421356237309503
10
57.232218493197422
20
236.11286564847447
10
57.232218493197422
20
122.77286564847458
42
-0.41421356237309609
10
52.232218493197408
20
117.77286564847458
0
LWPOLYLINE
5
109
100
AcDbEntity
8
0
100
AcDbPolyline
90
8
70
1
43
0.0
10
28.732218493197195
20
171.37286564847457
10
40.732218493197223
20
171.37286564847457
42
0.41421356237301699
10
41.732218493197166
20
172.37286564847452
10
41.732218493197095
20
184.37286564847454
42
0.41421356237294155
10
40.732218493197223
20
185.37286564847449
10
28.732218493197195
20
185.37286564847463
42
0.41421356237296497
10
27.732218493197109
20
184.37286564847449
10
27.73221849319718
20
172.3728656484748
42
0.41421356237299356
0
LWPOLYLINE
5
110
100
AcDbEntity
8
0
100
AcDbPolyline
90
8
70
1
43
0.0
10
-171.62056594414565
20
154.30808670859625
10
-183.35833715295081
20
151.81314641878311
42
0.41421356237311541
10
-184.12857306286739
20
150.6270871272315
10
-181.63363277305416
20
138.88931591842572
42
0.41421356237290824
10
-180.44757348150227
20
138.11908000850957
10
-168.70980227269655
20
140.61402029832277
42
0.4142135623730307
10
-167.93956636278068
20
141.80007958987446
10
-170.43450665259371
20
153.5378507986801
42
0.41421356237308887
0
LWPOLYLINE
5
111
100
AcDbEntity
8
0
100
AcDbPolyline
90
8
70
1
43
0.0
10
-227.79778150680258
20
149.41286564847462
42
-0.41421356237326673
10
-226.79778150680255
20
148.41286564847456
10
-226.79778150680264
20
136.41286564847456
42
-0.4142135623732407
10
-227.79778150680258
20
135.41286564847462
10
-239.79778150680261
20
135.41286564847454
42
-0.41421356237313667
10
-240.79778150680249
20
136.41286564847456
10
-240.79778150680255
20
148.41286564847456
42
-0.41421356237301177
10
-239.79778150680289
20
149.41286564847459
0
LWPOLYLINE
5
112
100
AcDbEntity
8
0
100
AcDbPolyline
90
8
70
1
43
0.0
10
-71.711056361011885
20
212.4078507986799
10
-74.205996650825057
20
200.67007958987432
42
0.41421356237310614
10
-73.435760740908904
20
199.48402029832266
10
-61.697989532103179
20
196.98908000850963
42
0.41421356237309304
10
-60.511930240551663
20
197.75931591842564
10
-58.016989950738605
20
209.4970871272314
42
0.41421356237314244
10
-58.787225860654928
20
210.68314641878288
10
-70.524997069460227
20
213.17808670859608
42
0.41421356237324403
0
LWPOLYLINE
5
113
100
AcDbEntity
8
0
100
AcDbPolyline
90
8
70
1
43
0.0
10
-160.13486126888836
20
175.19780483730969
10
-157.63992097907504
20
163.46003362850396
42
0.41421356237298862
10
-156.45386168752339
20
162.68979771858801
10
-144.71609047871738
20
165.1847380084011
42
0.41421356237301143
10
-143.94585456880151
20
166.37079729995278
10
-146.44079485861442
20
178.10856850875842
42
0.41421356237303181
10
-147.62685415016605
20
178.87880441867438
10
-159.36462535897221
20
176.38386412886126
42
0.41421356237303586
0
LWPOLYLINE
5
114
100
AcDbEntity
8
0
100
AcDbPolyline
90
8
70
1
43
0.0
10
-26.927781506802688
20
154.46286564847455
42
-0.41421356237312756
10
-27.927781506802845
20
155.46286564847458
10
-27.927781506802756
20
167.46286564847458
42
-0.41421356237313145
10
-26.927781506802688
20
168.46286564847452
10
-14.92778150680266
20
168.4628656484746
42
-0.41421356237307094
10
-13.927781506802575
20
167.46286564847458
10
-13.927781506802591
20
155.46286564847458
42
-0.41421356237308005
10
-14.92778150680266
20
154.46286564847455
0
LWPOLYLINE
5
115
100
AcDbEntity
8
0
100
AcDbPolyline
90
8
70
1
43
0.0
10
-168.75486126888788
20
192.8478048373097
10
-166.25992097907499
20
181.11003362850403
42
0.41421356237307466
10
-165.07386168752333
20
180.33979771858824
10
-153.33609047871761
20
182.83473800840136
42
0.41421356237308704
10
-152.56585456880174
20
184.02079729995273
10
-155.06079485861474
20
195.75856850875846
42
0.41421356237317464
10
-156.24685415016671
20
196.52880441867453
10
-167.98462535897215
20
194.0338641288613
42
0.41421356237316848
0
LWPOLYLINE
5
116
100
AcDbEntity
8
0
100
AcDbPolyline
90
8
70
1
43
0.0
10
-33.977781506802813
20
205.56286564847454
10
-33.977781506802671
20
193.56286564847451
42
0.41421356237309631
10
-32.977781506802728
20
192.56286564847457
10
-20.977781506802557
20
192.56286564847466
42
0.41421356237302998
10
-19.977781506802472
20
193.56286564847451
10
-19.977781506802756
20
205.56286564847454
42
0.41421356237301699
10
-20.9777815068027
20
206.56286564847449
10
-32.977781506802728
20
206.56286564847454
42
0.41421356237298707
0
LWPOLYLINE
5
117
100
AcDbEntity
8
0
100
AcDbPolyline
90
8
70
1
43
0.0
10
-54.802048946930029
20
195.52330258824446
42
-0.41421356237302365
10
-55.572284856846025
20
196.70936187979595
10
-53.077344567032853
20
208.44713308860165
42
-0.41421356237307466
10
-51.891285275481493
20
209.21736899851771
10
-40.153514066675775
20
206.72242870870457
42
-0.41421356237293955
10
-39.383278156759729
20
205.536369417153
10
-41.87821844657293
20
193.79859820834739
42
-0.41421356237320117
10
-43.064277738124446
20
193.02836229843138
0
LWPOLYLINE
5
118
100
AcDbEntity
8
0
100
AcDbPolyline
90
8
70
1
43
0.0
10
4.1122184931971777
20
224.61286564847461
42
-0.41421356237325696
10
5.1122184931971049
20
225.61286564847455
10
17.112218493197275
20
225.6128656484745
42
-0.41421356237301049
10
18.112218493197147
20
224.61286564847461
10
18.112218493197236
20
212.61286564847452
42
-0.41421356237301699
10
17.112218493197275
20
211.61286564847458
10
5.1122184931971049
20
211.61286564847458
42
-0.41421356237311974
10
4.1122184931972328
20
212.61286564847452
0
LWPOLYLINE
5
119
100
AcDbEntity
8
0
100
AcDbPolyline
90
8
70
1
43
0.0
10
-125.31214277482277
20
170.33151501003113
10
-127.80708306463595
20
182.06928621883677
42
0.41421356237314405
10
-128.99314235618732
20
182.83952212875278
10
-140.7309135649929
20
180.34458183893972
42
0.41421356237313789
10
-141.5011494749092
20
179.15852254738803
10
-139.00620918509591
20
167.42075133858242
42
0.41421356237304308
10
-137.82014989354423
20
166.65051542866644
10
-126.08237868473879
20
169.14545571847952
42
0.4142135623731808
0
LWPOLYLINE
5
120
100
AcDbEntity
8
0
100
AcDbPolyline
90
8
70
1
43
0.0
10
-169.52056594414557
20
213.17808670859597
42
-0.41421356237300933
10
-168.33450665259386
20
212.40785079868004
10
-165.83956636278046
20
200.67007958987432
42
-0.41421356237321133
10
-166.60980227269647
20
199.48402029832283
10
-178.3475734815022
20
196.98908000850966
42
-0.41421356237302964
10
-179.53363277305363
20
197.75931591842564
10
-182.02857306286717
20
209.49708712723145
42
-0.41421356237312773
10
-181.25833715295101
20
210.68314641878288
0
LWPOLYLINE
5
121
100
AcDbEntity
8
0
100
AcDbPolyline
90
8
70
1
43
0.0
10
-96.054649448612679
20
218.6045818389394
10
-107.7924206574184
20
221.09952212875265
42
0.41421356237309503
10
-108.97847994896978
20
220.32928621883642
10
-111.47342023878289
20
208.59151501003097
42
0.41421356237309398
10
-110.70318432886694
20
207.40545571847932
10
-98.965413120061484
20
204.91051542866629
42
0.41421356237308998
10
-97.779353828509841
20
205.68075133858235
10
-95.284413538696796
20
217.41852254738802
42
0.41421356237317353
0
LWPOLYLINE
5
122
100
AcDbEntity
8
0
100
AcDbPolyline
90
8
70
1
43
0.0
10
-49.99204894693009
20
215.51330258824422
42
-0.4142135623731098
10
-50.762284856846165
20
216.69936187979607
10
-48.267344567032914
20
228.43713308860168
42
-0.41421356237309048
10
-47.081285275481271
20
229.20736899851775
10
-35.343514066675965
20
226.71242870870452
42
-0.41421356237306595
10
-34.573278156759855
20
225.52636941715303
10
-37.068218446572992
20
213.78859820834734
42
-0.41421356237307694
10
-38.254277738124365
20
213.01836229843155
0
LWPOLYLINE
5
123
100
AcDbEntity
8
0
100
AcDbPolyline
90
8
70
1
43
0.0
10
-105.35318432886712
20
186.79545571847925
42
-0.41421356237309398
10
-106.12342023878307
20
187.9815150100309
10
-103.6284799489701
20
199.71928621883649
42
-0.41421356237313789
10
-102.4424206574183
20
200.48952212875261
10
-90.704649448612571
20
197.99458183893972
42
-0.41421356237308377
10
-89.934413538696575
20
196.80852254738809
10
-92.429353828509733
20
185.07075133858237
42
-0.41421356237294604
10
-93.615413120061532
20
184.30051542866639
0
LWPOLYLINE
5
124
100
AcDbEntity
8
0
100
AcDbPolyline
90
8
70
1
43
0.0
10
-146.4401498935446
20
184.3005154286665
10
-134.70237868473873
20
186.79545571847939
42
0.41421356237317464
10
-133.93214277482258
20
187.98151501003105
10
-136.4270830646357
20
199.71928621883663
42
0.41421356237295515
10
-137.61314235618727
20
200.48952212875264
10
-149.35091356499299
20
197.99458183893972
42
0.41421356237317247
10
-150.12114947490915
20
196.80852254738809
10
-147.62620918509623
20
185.07075133858245
42
0.41421356237303181
0
LWPOLYLINE
5
125
100
AcDbEntity
8
0
100
AcDbPolyline
90
8
70
1
43
0.0
10
-215.80778150680317
20
153.40286564847489
42
-0.4142135623730534
10
-216.8077815068026
20
154.40286564847455
10
-216.80778150680251
20
166.40286564847457
42
-0.41421356237298057
10
-215.80778150680317
20
167.40286564847466
10
-203.80778150680314
20
167.40286564847457
42
-0.41421356237313667
10
-202.80778150680277
20
166.40286564847457
10
-202.80778150680277
20
154.40286564847455
42
-0.41421356237299095
10
-203.807781506803
20
153.40286564847469
0
LWPOLYLINE
5
126
100
AcDbEntity
8
0
100
AcDbPolyline
90
8
70
1
43
0.0
10
-238.11778150680283
20
192.56286564847457
10
-226.11778150680294
20
192.56286564847449
42
0.4142135623730222
10
-225.11778150680271
20
193.56286564847451
10
-225.11778150680277
20
205.56286564847454
42
0.41421356237297013
10
-226.11778150680294
20
206.56286564847454
10
-238.11778150680283
20
206.56286564847454
42
0.41421356237292856
10
-239.11778150680277
20
205.56286564847454
10
-239.11778150680271
20
193.56286564847451
42
0.41421356237294937
0
LWPOLYLINE
5
127
100
AcDbEntity
8
0
100
AcDbPolyline
90
8
70
1
43
0.0
10
-114.11734456703286
20
240.89713308860169
42
-0.41421356237321749
10
-112.93128527548134
20
241.6673689985177
10
-98.86552277692914
20
238.67759888455822
42
-0.41421356237317059
10
-98.095286867012959
20
237.49153959300662
10
-100.5902271568263
20
225.75376838420112
42
-0.41421356237294604
10
-101.77628644837768
20
224.98353247428508
10
-115.84204894692974
20
227.97330258824456
42
-0.41421356237320839
10
-116.61228485684573
20
229.15936187979597
0
LWPOLYLINE
5
128
100
AcDbEntity
8
0
100
AcDbPolyline
90
8
70
1
43
0.0
10
-150.88685415016627
20
217.1388044186744
10
-162.62462535897185
20
214.64386412886142
42
0.41421356237296858
10
-163.39486126888829
20
213.45780483730962
10
-160.89992097907498
20
201.72003362850398
42
0.414213562373344
10
-159.71386168752346
20
200.94979771858794
10
-147.97609047871759
20
203.44473800840115
42
0.41421356237308704
10
-147.20585456880173
20
204.63079729995252
10
-149.70079485861476
20
216.36856850875836
42
0.41421356237307871
0
LWPOLYLINE
5
129
100
AcDbEntity
8
0
100
AcDbPolyline
90
8
70
1
43
0.0
10
-235.43778150680254
20
167.46286564847458
42
-0.41421356237311585
10
-234.43778150680259
20
168.46286564847469
10
-222.43778150680257
20
168.46286564847446
42
-0.41421356237303258
10
-221.43778150680311
20
167.46286564847458
10
-221.43778150680319
20
155.46286564847458
42
-0.4142135623732407
10
-222.43778150680313
20
154.46286564847463
10
-234.43778150680259
20
154.46286564847455
42
-0.41421356237313667
10
-235.43778150680248
20
155.46286564847458
0
LWPOLYLINE
5
130
100
AcDbEntity
8
0
100
AcDbPolyline
90
8
70
1
43
0.0
10
-206.06778150680285
20
193.56286564847451
10
-206.06778150680285
20
205.56286564847454
42
0.41421356237300139
10
-207.06778150680321
20
206.56286564847454
10
-219.06778150680282
20
206.56286564847463
42
0.4142135623730846
10
-220.06778150680276
20
205.56286564847449
10
-220.0677815068027
20
193.56286564847451
42
0.41421356237294937
10
-219.06778150680282
20
192.56286564847457
10
-207.06778150680279
20
192.56286564847457
42
0.41421356237301177
0
LWPOLYLINE
5
131
100
AcDbEntity
8
0
100
AcDbPolyline
90
8
70
1
43
0.0
10
-1.4307815068029828
20
173.51286564847453
10
15.332218493197018
20
173.51286564847464
42
0.41421356237313078
10
16.332218493197104
20
174.51286564847459
10
16.332218493197175
20
186.51286564847447
42
0.41421356237313534
10
15.332218493197018
20
187.51286564847447
10
-1.430781506803058
20
187.5128656484745
42
0.4142135623730569
10
-2.4307815068030618
20
186.5128656484745
10
-2.4307815068029823
20
174.51286564847453
42
0.41421356237305634
0
LWPOLYLINE
5
132
100
AcDbEntity
8
0
100
AcDbPolyline
90
8
70
1
43
0.0
10
-22.56778150680276
20
148.41286564847456
10
-22.56778150680276
20
136.41286564847456
42
0.41421356237330181
10
-21.567781506802532
20
135.41286564847454
10
-9.5677815068027883
20
135.41286564847462
42
0.41421356237325174
10
-8.5677815068028451
20
136.41286564847456
10
-8.5677815068027741
20
148.41286564847456
42
0.41421356237325829
10
-9.5677815068027883
20
149.41286564847459
10
-21.567781506802532
20
149.41286564847468
42
0.41421356237313534
0
LWPOLYLINE
5
133
100
AcDbEntity
8
0
100
AcDbPolyline
90
8
70
1
43
0.0
10
-67.741930240551667
20
140.86931591842571
42
-0.41421356237309248
10
-68.927989532103169
20
140.0990800085097
10
-80.66576074090932
20
142.59402029832279
42
-0.41421356237322771
10
-81.435996650825103
20
143.78007958987433
10
-78.941056361011874
20
155.51785079867997
42
-0.41421356237298895
10
-77.754997069460501
20
156.28808670859613
10
-66.017225860654634
20
153.79314641878295
42
-0.41421356237318224
10
-65.24698995073868
20
152.60708712723147
0
LWPOLYLINE
5
134
100
AcDbEntity
8
0
100
AcDbPolyline
90
8
70
1
43
0.0
10
-175.08757348150226
20
158.72908000850964
10
-163.34980227269654
20
161.22402029832287
42
0.41421356237302964
10
-162.57956636278053
20
162.41007958987433
10
-165.0745066525937
20
174.14785079867997
42
0.41421356237311541
10
-166.2605659441455
20
174.91808670859626
10
-177.99833715295094
20
172.42314641878312
42
0.41421356237313789
10
-178.76857306286723
20
171.23708712723143
10
-176.2736327730542
20
159.49931591842579
42
0.41421356237308887
0
LWPOLYLINE
5
135
100
AcDbEntity
8
0
100
AcDbPolyline
90
8
70
1
43
0.0
10
-189.83327815675977
20
176.09936187979613
42
-0.41421356237297874
10
-190.60351406667579
20
174.91330258824459
10
-202.34128527548137
20
172.41836229843145
42
-0.41421356237293588
10
-203.52734456703303
20
173.1885982083474
10
-206.02228485684606
20
184.92636941715304
42
-0.41421356237306239
10
-205.25204894693019
20
186.11242870870461
10
-193.51427773812446
20
188.60736899851776
42
-0.41421356237296858
10
-192.32821844657258
20
187.83713308860166
0
LWPOLYLINE
5
136
100
AcDbEntity
8
0
100
AcDbPolyline
90
8
70
1
43
0.0
10
-197.40228485684625
20
167.27636941715298
10
-194.90734456703294
20
155.53859820834737
42
0.4142135623730463
10
-193.72128527548142
20
154.76836229843138
10
-181.98351406667598
20
157.2633025882445
42
0.41421356237307361
10
-181.21327815675983
20
158.44936187979607
10
-183.70821844657269
20
170.1871330886018
42
0.41421356237319096
10
-184.89427773812409
20
170.95736899851786
10
-196.63204894692996
20
168.46242870870455
42
0.41421356237288282
0
LWPOLYLINE
5
137
100
AcDbEntity
8
0
100
AcDbPolyline
90
8
70
1
43
0.0
10
8.8822184931972004
20
168.4628656484746
42
-0.414213562373136
10
9.8822184931973567
20
167.46286564847458
10
9.8822184931972785
20
155.46286564847458
42
-0.41421356237314511
10
8.8822184931972004
20
154.46286564847463
10
-3.117781506802686
20
154.46286564847455
42
-0.41421356237312723
10
-4.1177815068028423
20
155.46286564847458
10
-4.1177815068027526
20
167.46286564847458
42
-0.41421356237313112
10
-3.117781506802686
20
168.46286564847452
0
LWPOLYLINE
5
138
100
AcDbEntity
8
0
100
AcDbPolyline
90
8
70
1
43
0.0
10
-84.294768154991004
20
176.12856850875843
42
-0.41421356237305218
10
-83.108708863439347
20
176.89880441867442
10
-71.370937654633607
20
174.40386412886139
42
-0.41421356237310614
10
-70.600701744717469
20
173.2178048373097
10
-73.095642034530783
20
161.48003362850389
42
-0.41421356237307666
10
-74.281701326082157
20
160.70979771858811
10
-86.019472534888166
20
163.20473800840105
42
-0.41421356237309398
10
-86.78970844480412
20
164.39079729995271
0
LWPOLYLINE
5
139
100
AcDbEntity
8
0
100
AcDbPolyline
90
8
70
1
43
0.0
10
-240.48778150680263
20
155.46286564847458
42
-0.41421356237307944
10
-241.48778150680272
20
154.46286564847455
10
-253.48778150680261
20
154.46286564847435
42
-0.41421356237313667
10
-254.48778150680278
20
155.46286564847458
10
-254.48778150680269
20
167.46286564847458
42
-0.41421356237307422
10
-253.48778150680261
20
168.4628656484746
10
-241.48778150680272
20
168.4628656484746
42
-0.41421356237311585
10
-240.487781506803
20
167.46286564847458
0
LWPOLYLINE
5
140
100
AcDbEntity
8
0
100
AcDbPolyline
90
8
70
1
43
0.0
10
-72.070937654633838
20
194.0338641288615
42
-0.41421356237315266
10
-71.300701744717443
20
192.84780483730964
10
-73.795642034530729
20
181.11003362850403
42
-0.41421356237309048
10
-74.981701326082359
20
180.33979771858796
10
-86.71947253488824
20
182.83473800840096
42
-0.41421356237300311
10
-87.489708444803966
20
184.02079729995265
10
-84.994768154990794
20
195.75856850875829
42
-0.41421356237326035
10
-83.808708863439279
20
196.52880441867421
0
LWPOLYLINE
5
141
100
AcDbEntity
8
0
100
AcDbPolyline
90
8
70
1
43
0.0
10
-208.16778150680321
20
134.27286564847458
42
-0.4142135623732407
10
-209.16778150680315
20
133.27286564847464
10
-221.16778150680318
20
133.27286564847486
42
-0.41421356237311063
10
-222.16778150680261
20
134.27286564847458
10
-222.16778150680315
20
146.27286564847458
42
-0.41421356237312623
10
-221.16778150680318
20
147.27286564847469
10
-209.16778150680315
20
147.27286564847461
42
-0.41421356237309503
10
-208.16778150680284
20
146.27286564847458
0
LWPOLYLINE
5
142
100
AcDbEntity
8
0
100
AcDbPolyline
90
8
70
1
43
0.0
10
-211.42778150680314
20
174.51286564847459
42
-0.41421356237307422
10
-212.42778150680266
20
173.51286564847456
10
-224.42778150680311
20
173.51286564847467
42
-0.41421356237316787
10
-225.42778150680277
20
174.51286564847459
10
-225.42778150680275
20
186.51286564847447
42
-0.41421356237323032
10
-224.42778150680311
20
187.51286564847447
10
-212.42778150680266
20
187.51286564847462
42
-0.41421356237321988
10
-211.42778150680257
20
186.51286564847447
0
LWPOLYLINE
5
143
100
AcDbEntity
8
0
100
AcDbPolyline
90
8
70
1
43
0.0
10
-243.47778150680284
20
173.51286564847464
42
-0.41421356237309503
10
-244.47778150680278
20
174.51286564847459
10
-244.47778150680293
20
186.51286564847447
42
-0.41421356237307422
10
-243.47778150680284
20
187.51286564847447
10
-231.47778150680253
20
187.51286564847459
42
-0.41421356237323032
10
-230.47778150680273
20
186.51286564847447
10
-230.47778150680273
20
174.51286564847459
42
-0.41421356237294937
10
-231.47778150680239
20
173.51286564847456
0
LWPOLYLINE
5
144
100
AcDbEntity
8
0
100
AcDbPolyline
90
8
70
1
43
0.0
10
-202.76228485684612
20
146.66636941715302
10
-200.26734456703295
20
134.92859820834738
42
0.4142135623730463
10
-199.08128527548143
20
134.15836229843137
10
-187.34351406667571
20
136.6533025882446
42
0.41421356237311652
10
-186.57327815675984
20
137.83936187979606
10
-189.06821844657293
20
149.57713308860173
42
0.41421356237295737
10
-190.2542777381241
20
150.34736899851765
10
-201.99204894692997
20
147.85242870870468
42
0.41421356237309503
0
LWPOLYLINE
5
145
100
AcDbEntity
8
0
100
AcDbPolyline
90
8
70
1
43
0.0
10
-184.47327815675976
20
196.70936187979606
10
-186.96821844657308
20
208.44713308860165
42
0.4142135623731808
10
-188.15427773812445
20
209.21736899851766
10
-199.89204894693017
20
206.72242870870457
42
0.41421356237306239
10
-200.66228485684604
20
205.53636941715297
10
-198.16734456703279
20
193.79859820834739
42
0.41421356237302964
10
-196.98128527548135
20
193.02836229843138
10
-185.24351406667563
20
195.52330258824446
42
0.41421356237306239
0
LWPOLYLINE
5
146
100
AcDbEntity
8
0
100
AcDbPolyline
90
8
70
1
43
0.0
10
23.66221849319713
20
165.32286564847468
42
-0.41421356237316137
10
24.662218493197088
20
166.32286564847453
10
36.662218493197116
20
166.32286564847462
42
-0.41421356237319651
10
37.662218493197486
20
165.32286564847448
10
37.662218493197066
20
153.3228656484745
42
-0.41421356237302348
10
36.662218493197258
20
152.32286564847465
10
24.66221849319723
20
152.32286564847462
42
-0.41421356237299617
10
23.662218493197287
20
153.3228656484745
0
LWPOLYLINE
5
147
100
AcDbEntity
8
0
100
AcDbPolyline
90
8
70
1
43
0.0
10
-144.76114947490899
20
217.41852254738802
10
-142.2662091850961
20
205.68075133858235
42
0.41421356237301798
10
-141.08014989354416
20
204.91051542866637
10
-129.34237868473858
20
207.40545571847949
42
0.41421356237298496
10
-128.57214277482257
20
208.59151501003106
10
-131.06708306463557
20
220.3292862188369
42
0.41421356237292567
10
-132.2531423561874
20
221.09952212875257
10
-143.99091356499301
20
218.60458183893951
42
0.414213562373139
0
LWPOLYLINE
5
148
100
AcDbEntity
8
0
100
AcDbPolyline
90
8
70
1
43
0.0
10
-91.729353828509659
20
165.44075133858243
42
-0.41421356237320117
10
-92.915413120061032
20
164.67051542866636
10
-104.65318432886718
20
167.16545571847942
42
-0.41421356237310231
10
-105.42342023878297
20
168.35151501003105
10
-102.92847994897002
20
180.08928621883669
42
-0.41421356237309503
10
-101.74242065741822
20
180.8595221287527
10
-90.004649448612497
20
178.36458183893956
42
-0.41421356237310919
10
-89.234413538696558
20
177.17852254738807
0
LWPOLYLINE
5
149
100
AcDbEntity
8
0
100
AcDbPolyline
90
8
70
1
43
0.0
10
-84.650937654633651
20
157.75386412886135
10
-96.388708863439376
20
160.24880441867458
42
0.41421356237299911
10
-97.574768154991318
20
159.47856850875843
10
-100.06970844480395
20
147.74079729995276
42
0.41421356237314305
10
-99.299472534888054
20
146.55473800840113
10
-87.561701326082186
20
144.05979771858816
42
0.41421356237307361
10
-86.375642034530813
20
144.83003362850397
10
-83.880701744717427
20
156.56780483730964
42
0.41421356237307982
0
LWPOLYLINE
5
150
100
AcDbEntity
8
0
100
AcDbPolyline
90
8
70
1
43
0.0
10
-134.35314235618733
20
162.22952212875285
42
-0.41421356237314411
10
-133.16708306463565
20
161.45928621883678
10
-130.67214277482248
20
149.72151501003111
42
-0.41421356237312773
10
-131.4423786847388
20
148.53545571847943
10
-143.18014989354438
20
146.04051542866634
42
-0.4142135623731808
10
-144.36620918509601
20
146.81075133858241
10
-146.86114947490893
20
158.54852254738807
42
-0.41421356237298895
10
-146.09091356499306
20
159.73458183893962
0
LWPOLYLINE
5
151
100
AcDbEntity
8
0
100
AcDbPolyline
90
8
70
1
43
0.0
10
-116.20847994896991
20
163.43928621883663
10
-118.70342023878308
20
151.70151501003104
42
0.4142135623732604
10
-117.93318432886707
20
150.51545571847939
10
-106.19541312006135
20
148.02051542866624
42
0.41421356237303686
10
-105.00935382850955
20
148.79075133858237
10
-102.51441353869663
20
160.52852254738804
42
0.41421356237317059
10
-103.28464944861281
20
161.71458183893961
10
-115.02242065741854
20
164.20952212875272
42
0.41421356237306234
0
LWPOLYLINE
5
152
100
AcDbEntity
8
0
100
AcDbPolyline
90
8
70
1
43
0.0
10
-152.98685415016621
20
158.26880441867445
10
-164.72462535897208
20
155.77386412886136
42
0.4142135623731194
10
-165.49486126888837
20
154.5878048373097
10
-162.99992097907506
20
142.85003362850409
42
0.4142135623730685
10
-161.8138616875234
20
142.07979771858803
10
-150.07609047871739
20
144.57473800840114
42
0.41421356237307361
10
-149.30585456880152
20
145.76079729995271
10
-151.80079485861464
20
157.49856850875847
42
0.41421356237297258
0
LWPOLYLINE
5
153
100
AcDbEntity
8
0
100
AcDbPolyline
90
8
70
1
43
0.0
10
33.502218493197098
20
134.27286564847458
42
-0.41421356237325241
10
32.502218493197148
20
133.27286564847464
10
20.502218493197262
20
133.27286564847455
42
-0.4142135623732589
10
19.502218493197248
20
134.27286564847458
10
19.502218493197315
20
146.27286564847458
42
-0.41421356237325241
10
20.502218493197262
20
147.27286564847452
10
32.502218493197148
20
147.27286564847464
42
-0.41421356237325763
10
33.502218493197162
20
146.27286564847458
0
LWPOLYLINE
5
154
100
AcDbEntity
8
0
100
AcDbPolyline
90
8
70
1
43
0.0
10
-28.627781506802712
20
186.51286564847447
42
-0.41421356237311846
10
-27.627781506802762
20
187.51286564847453
10
-15.627781506802734
20
187.51286564847447
42
-0.41421356237327844
10
-14.627781506802719
20
186.51286564847447
10
-14.627781506802807
20
174.51286564847459
42
-0.41421356237325696
10
-15.627781506802734
20
173.51286564847464
10
-27.627781506802762
20
173.51286564847453
42
-0.41421356237315093
10
-28.627781506802634
20
174.51286564847459
0
LWPOLYLINE
5
155
100
AcDbEntity
8
0
100
AcDbPolyline
90
8
70
1
43
0.0
10
-48.752048946929989
20
155.28330258824454
42
-0.41421356237303636
10
-49.522284856846042
20
156.46936187979614
10
-47.02734456703282
20
168.20713308860172
42
-0.41421356237317514
10
-45.841285275481447
20
168.97736899851776
10
-34.103514066675729
20
166.48242870870456
42
-0.41421356237311774
10
-33.333278156759803
20
165.29636941715302
10
-35.828218446572762
20
153.55859820834738
42
-0.41421356237303464
10
-37.014277738124399
20
152.78836229843139
0
LWPOLYLINE
5
156
100
AcDbEntity
8
0
100
AcDbPolyline
90
26
70
1
43
0.0
10
-245.84778150680276
20
136.41286564847456
42
-0.41421356237312623
10
-246.84778150680273
20
135.41286564847445
10
-246.93477990391472
20
135.41286564847454
10
-246.9347799039146
20
134.82786912700169
42
-0.4142142039451534
10
-247.93478006782749
20
133.82786710044402
10
-252.93478088739121
20
133.82786710044391
42
-0.41421420394496611
10
-253.93478105130427
20
134.82786912700163
10
-253.93478105130427
20
135.41286564847454
10
-270.81078196230152
20
135.41286564847454
10
-270.81078196230152
20
134.82786912700149
42
-0.41421365839027746
10
-271.81078026356897
20
133.8278671004436
10
-276.8107792204878
20
133.82786710044331
42
-0.41421474950349679
10
-277.81078124704578
20
134.82786912700135
10
-277.81078124704578
20
135.41286564847454
10
-277.89778150680274
20
135.41286564847451
42
-0.41421356237326673
10
-278.8977815068028
20
136.41286564847456
10
-278.89778150680257
20
148.41286564847456
42
-0.41421356237301177
10
-277.89778150680291
20
149.41286564847459
10
-277.81078150680673
20
149.41286564847459
10
-277.81078124704572
20
151.76786680003602
42
-0.41421474950296611
10
-276.81077922048826
20
152.76786882659388
10
-247.93478006782792
20
152.76786882659442
42
-0.41421420394657898
10
-246.93477990391466
20
151.76786680003644
10
-246.93478150680775
20
149.41286564847459
10
-246.84778150680273
20
149.41286564847456
42
-0.41421356237298579
10
-245.84778150680256
20
148.41286564847456
0
LWPOLYLINE
5
157
100
AcDbEntity
8
0
100
AcDbPolyline
90
8
70
1
43
0.0
10
-92.069472534888064
20
203.44473800840106
10
-80.331701326082054
20
200.94979771858794
42
0.41421356237307466
10
-79.145642034530823
20
201.7200336285039
10
-76.650701744717722
20
213.45780483730962
42
0.41421356237311235
10
-77.420937654633661
20
214.64386412886137
10
-89.158708863439244
20
217.13880441867443
42
0.41421356237312557
10
-90.34476815499076
20
216.36856850875824
10
-92.839708444803861
20
204.63079729995252
42
0.41421356237321533
0
LWPOLYLINE
5
158
100
AcDbEntity
8
0
100
AcDbPolyline
90
8
70
1
43
0.0
10
-189.28327815675928
20
216.69936187979607
42
-0.41421356237297874
10
-190.05351406667529
20
215.51330258824453
10
-201.7912852754813
20
213.01836229843119
42
-0.41421356237298895
10
-202.9773445670329
20
213.78859820834734
10
-205.47228485684599
20
225.52636941715292
42
-0.41421356237306239
10
-204.70204894693012
20
226.71242870870452
10
-192.96427773812397
20
229.20736899851767
42
-0.41421356237307466
10
-191.77821844657296
20
228.43713308860168
0
LWPOLYLINE
5
159
100
AcDbEntity
8
0
100
AcDbPolyline
90
8
70
1
43
0.0
10
-49.108218446572636
20
136.90859820834737
10
-46.613278156759748
20
148.64636941715318
42
0.41421356237316048
10
-47.383514066675616
20
149.83242870870455
10
-59.121285275481341
20
152.32736899851795
42
0.41421356237316337
10
-60.307344567032857
20
151.55713308860172
10
-62.802284856845951
20
139.81936187979596
42
0.41421356237309759
10
-62.032048946930018
20
138.63330258824448
10
-50.294277738124435
20
136.13836229843133
42
0.41421356237302875
0
LWPOLYLINE
5
160
100
AcDbEntity
8
0
100
AcDbPolyline
90
24
70
1
43
0.0
10
-68.58204037241336
20
232.24079859310399
42
-0.023635684844072236
10
-68.490646654780392
20
232.21680818686372
10
-68.367162865888233
20
232.79775373811887
42
-0.41421365839001495
10
-67.181104814602563
20
233.56799198349341
10
-62.290367831221118
20
232.52843374627361
42
-0.023632142358075221
10
-62.198987537063161
20
232.504447919152
10
-59.998892417045653
20
232.03680326509419
42
-0.41421474950307052
10
-59.22865494620369
20
230.85074156992511
10
-62.750678504853141
20
214.28092348960988
42
-0.41421474950316139
10
-63.936740200022228
20
213.51068601876634
10
-92.181729489988413
20
219.514343826648
42
-0.023631676432014411
10
-92.273107962184625
20
219.5383292664992
10
-94.473204904163595
20
220.0059743078273
42
-0.41421420394658676
10
-95.243440553065497
20
221.19203561573087
10
-91.721416994415947
20
237.76185369604607
42
-0.41421420394489494
10
-90.535357121188724
20
238.53209155415533
10
-85.644618315865557
20
237.49253292966969
42
-0.023631676431498536
10
-85.553239843671207
20
237.46854748981858
10
-83.353142901690092
20
237.00090244849025
42
-0.41421420394501834
10
-82.58290725278799
20
235.81484114058654
10
-82.704535334902701
20
235.24262600331255
42
-0.0236356829407833
10
-82.611285275481379
20
235.22736899851765
10
-70.873514066675796
20
232.73242870870462
42
-0.02363163543056318
10
-70.782135754810298
20
232.70844330293238
0
LWPOLYLINE
5
161
100
AcDbEntity
8
0
100
AcDbPolyline
90
8
70
1
43
0.0
10
-49.452048946930063
20
174.91330258824448
10
-37.714277738124053
20
172.4183622984313
42
0.4142135623731838
10
-36.52821844657268
20
173.1885982083474
10
-34.033278156759707
20
184.92636941715304
42
0.41421356237307827
10
-34.80351406667566
20
186.1124287087047
10
-46.541285275481243
20
188.60736899851773
42
0.41421356237309304
10
-47.727344567032901
20
187.83713308860166
10
-50.222284856846159
20
176.09936187979613
42
0.41421356237295026
0
LWPOLYLINE
5
162
100
AcDbEntity
8
0
100
AcDbPolyline
90
8
70
1
43
0.0
10
-265.30778150680277
20
168.4628656484746
10
-277.30778150680266
20
168.4628656484746
42
0.41421356237318868
10
-278.30778150680288
20
167.46286564847466
10
-278.30778150680283
20
155.46286564847458
42
0.41421356237298579
10
-277.30778150680266
20
154.46286564847455
10
-265.30778150680294
20
154.46286564847446
42
0.41421356237312623
10
-264.30778150680271
20
155.46286564847458
10
-264.30778150680271
20
167.46286564847458
42
0.41421356237307422
0
LWPOLYLINE
5
163
100
AcDbEntity
8
0
100
AcDbPolyline
90
8
70
1
43
0.0
10
-282.06338150680278
20
211.66086564847456
10
-270.0633815068025
20
211.66086564847461
42
0.41421356237294937
10
-269.06338150680256
20
212.66086564847456
10
-269.0633815068029
20
224.66086564847458
42
0.4142135623730534
10
-270.06338150680278
20
225.66086564847461
10
-282.06338150680278
20
225.66086564847453
42
0.41421356237300139
10
-283.06338150680301
20
224.66086564847458
10
-283.06338150680284
20
212.66086564847456
42
0.41421356237328233
0
LWPOLYLINE
5
164
100
AcDbEntity
8
0
100
AcDbPolyline
90
8
70
1
43
0.0
10
-187.38857306286718
20
188.8870871272313
10
-184.89363277305358
20
177.14931591842586
42
0.41421356237287854
10
-183.70757348150278
20
176.3790800085099
10
-171.96980227269648
20
178.87402029832282
42
0.41421356237296858
10
-171.19956636278047
20
180.06007958987448
10
-173.69450665259376
20
191.79785079868
42
0.41421356237324619
10
-174.88056594414545
20
192.56808670859598
10
-186.61833715295103
20
190.07314641878287
42
0.41421356237302964
0
LWPOLYLINE
5
165
100
AcDbEntity
8
0
100
AcDbPolyline
90
8
70
1
43
0.0
10
-67.385760740909006
20
159.24402029832291
42
-0.41421356237305523
10
-68.155996650824889
20
160.43007958987445
10
-65.661056361011831
20
172.16785079867989
42
-0.41421356237319712
10
-64.474997069460471
20
172.93808670859596
10
-52.737225860654746
20
170.44314641878287
42
-0.41421356237323331
10
-51.96698995073848
20
169.25708712723139
10
-54.461930240551908
20
157.51931591842572
42
-0.41421356237325474
10
-55.647989532103288
20
156.74908000850974
0
LWPOLYLINE
5
166
100
AcDbEntity
8
0
100
AcDbPolyline
90
8
70
1
43
0.0
10
-28.207781506802831
20
147.27286564847461
10
-40.20778150680286
20
147.27286564847469
42
0.41421356237312884
10
-41.207781506802803
20
146.27286564847458
10
-41.207781506802661
20
134.27286564847458
42
0.41421356237298318
10
-40.20778150680286
20
133.27286564847455
10
-28.207781506802831
20
133.27286564847464
42
0.41421356237314444
10
-27.207781506802746
20
134.27286564847458
10
-27.207781506802675
20
146.27286564847458
42
0.41421356237312756
0
LWPOLYLINE
5
167
100
AcDbEntity
8
0
100
AcDbPolyline
90
8
70
1
43
0.0
10
10.482218493197301
20
136.41286564847456
42
-0.41421356237314511
10
9.4822184931972231
20
135.41286564847462
10
-2.5177815068028053
20
135.41286564847482
42
-0.41421356237310369
10
-3.5177815068028195
20
136.41286564847456
10
-3.5177815068031695
20
148.41286564847456
42
-0.41421356237307261
10
-2.5177815068028053
20
149.41286564847459
10
9.4822184931972231
20
149.41286564847459
42
-0.4142135623732589
10
10.482218493197237
20
148.41286564847456
0
LWPOLYLINE
5
168
100
AcDbEntity
8
0
100
AcDbPolyline
90
8
70
1
43
0.0
10
-53.437225860654685
20
190.07314641878293
42
-0.41421356237301438
10
-52.666989950738838
20
188.8870871272313
10
-55.16193024055184
20
177.14931591842586
42
-0.41421356237300727
10
-56.347989532103213
20
176.3790800085097
10
-68.08576074090908
20
178.87402029832282
42
-0.41421356237311285
10
-68.855996650825006
20
180.06007958987431
10
-66.361056361011762
20
191.79785079868003
42
-0.41421356237324258
10
-65.174997069460389
20
192.56808670859601
0
LWPOLYLINE
5
169
100
AcDbEntity
8
0
100
AcDbPolyline
90
27
70
1
43
0.0
10
-276.27578278793737
20
192.56286653217902
10
-273.83778150680257
20
192.56286564847457
10
-259.3997819304725
20
192.56286564847457
10
-259.3997819304725
20
191.97786841174562
42
0.41421420394508057
10
-258.3997817665599
20
190.97786638518798
10
-253.39978094699603
20
190.97786638518801
42
0.41421420394501812
10
-252.39978078308297
20
191.97786841174562
10
-252.39978078308312
20
192.56286564847457
10
-252.31278150680254
20
192.56286564847457
42
0.4142135623732407
10
-251.31278150680274
20
193.56286564847451
10
-251.31278150680316
20
205.56286564847454
42
0.41421356237303258
10
-252.31278150680254
20
206.56286564847434
10
-252.3997815068077
20
206.56286564847454
10
-252.3997807830832
20
208.91786608478029
42
0.41421420394665182
10
-253.39978094699603
20
209.91786811133792
10
-282.27578009965657
20
209.91786811133821
42
0.4142147495031378
10
-283.27578212621432
20
208.91786608478029
10
-283.27578150680677
20
206.56286564847454
10
-290.5065315068029
20
206.56286564847463
42
0.4142135623730846
10
-291.50653150680284
20
205.56286564847449
10
-291.50653150680262
20
193.56286564847451
42
0.41421356237295975
10
-290.5065315068029
20
192.56286564847457
10
-283.27578212621432
20
192.56286564847457
10
-283.27578212621427
20
191.97786841174562
42
0.41421474950333553
10
-282.27578009965657
20
190.9778663851877
10
-277.27578114273786
20
190.97786638518801
42
0.41421365839011615
10
-276.27578284147006
20
191.97786841174562
0
LWPOLYLINE
5
170
100
AcDbEntity
8
0
100
AcDbPolyline
90
16
70
1
43
0.0
10
9.9722184931974311
20
192.56286564847466
10
12.410218086520445
20
192.56286515825909
10
12.410218069527424
20
191.97786841174562
42
0.414214203944957
10
13.410218233440361
20
190.97786638518807
10
18.410219053004084
20
190.97786638518795
42
0.41421420394508968
10
19.410219216917
20
191.97786841174562
10
19.410219216916666
20
208.91786608478029
42
0.41421420394668046
10
18.410219053004084
20
209.91786811133821
10
-10.465780099656428
20
209.91786811133821
42
0.41421474950313525
10
-11.465782126214208
20
208.91786608478029
10
-11.465782126214279
20
191.97786841174562
42
0.41421474950309362
10
-10.465780099657138
20
190.9778663851877
10
-5.4657811427385639
20
190.97786638518787
42
0.41421365839016133
10
-4.4657828414707978
20
191.97786841174562
10
-4.4657828414707978
20
192.56286564847414
10
-2.0277815068028815
20
192.56286564847449
0
LWPOLYLINE
5
171
100
AcDbEntity
8
0
100
AcDbPolyline
90
16
70
1
43
0.0
10
-259.98978191347925
20
187.5128658935877
10
-262.42778150679067
20
187.51286582276688
10
-274.42778150680272
20
187.51286564847442
10
-276.86578278793701
20
187.51286487631475
10
-276.86578284147004
20
188.09786288519837
42
0.41421420394635006
10
-277.86578300538253
20
189.09786491176106
10
-282.86578382494656
20
189.09786491176106
42
0.41421420394504938
10
-283.86578398885956
20
188.09786288520337
10
-283.86578398885933
20
171.1578652121689
42
0.41421420394672465
10
-282.86578382494639
20
170.15786318561106
10
-253.98978467228616
20
170.15786318561112
42
0.41421474950323145
10
-252.98978264572824
20
171.15786521216904
10
-252.98978264572824
20
188.09786288520371
42
0.41421474950337717
10
-253.98978467228631
20
189.09786491176158
10
-258.98978362920502
20
189.09786491176121
42
0.41421365839067809
10
-259.98978193047265
20
188.09786288520178
0
LWPOLYLINE
5
172
100
AcDbEntity
8
0
100
AcDbPolyline
90
16
70
1
43
0.0
10
-150.16955433628664
20
236.77425785593539
10
-152.554277738124
20
236.26736899851772
10
-164.29204894693015
20
233.77242870870424
10
-166.67677389011632
20
233.26553898484184
10
-166.79840186763255
20
233.83775337253994
42
0.4142142039449338
10
-167.9844617408601
20
234.60799123064925
10
-172.87520054618341
20
233.56843260616344
42
0.41421420394506847
10
-173.64543619508538
20
232.38237129825967
10
-170.12341263643575
20
215.8125532179447
42
0.41421420394671948
10
-168.93735276320797
20
215.04231535983541
10
-140.69236347324221
20
221.04597316771734
42
0.41421474950311232
10
-139.92212600239824
20
222.23203486288691
10
-143.44414956104799
20
238.80185294320194
42
0.41421474950358178
10
-144.63021125621736
20
239.57209041404559
10
-149.52094823959897
20
238.53253217682553
42
0.4142136583903045
10
-150.2911820665588
20
237.3464712561875
0
ENDSEC
0
SECTION
2
OBJECTS
0
DICTIONARY
5
C
100
AcDbDictionary
3
ACAD_GROUP
350
D
3
ACAD_MLINESTYLE
350
17
0
DICTIONARY
5
D
100
AcDbDictionary
0
DICTIONARY
5
1A
330
C
100
AcDbDictionary
0
DICTIONARY
5
17
100
AcDbDictionary
0
ENDSEC
0
EOF
